<?xml version="1.0" encoding="UTF-8"?>
<svg id="Layer_2" data-name="Layer 2" xmlns="http://www.w3.org/2000/svg" viewBox="0 0 85.32 82.35">
  <defs>
    <style>
      .cls-1 {
        fill: #8e0000;
      }

      .cls-2 {
        fill: #047a37;
      }

      .cls-3 {
        fill: #b39000;
      }

      .cls-4 {
        fill: #ffcd00;
      }
    </style>
  </defs>
  <g id="Layer_1-2" data-name="Layer 1">
    <g>
      <circle class="cls-4" cx="14.37" cy="14.37" r="14.37"/>
      <circle class="cls-1" cx="83.11" cy="80.15" r="2.21"/>
      <g>
        <path class="cls-3" d="M42.28,56.57h-16.73v-2.92c1.41,0,2.44-.12,3.09-.37.65-.24.97-.82.97-1.73,0-.64-.1-1.28-.31-1.94l-1.68-5.08h-11.52l-.86,2.8c-.49,1.57-.73,2.7-.73,3.4,0,1.27.41,2.08,1.22,2.42.81.34,1.76.51,2.84.51v2.92H6.32v-2.92c.98,0,1.81-.22,2.49-.67.68-.44,1.33-1.29,1.95-2.53.62-1.24,1.29-2.99,2-5.26L23,12.65h2.49l10.81,33.56c.79,2.37,1.36,3.98,1.73,4.81.37.84.87,1.48,1.52,1.94.65.46,1.55.68,2.72.68v2.92ZM26.67,41.41l-4.9-15.03-4.66,15.03h9.56Z"/>
        <path class="cls-3" d="M81.09,16.4c-1.59,0-2.73.22-3.42.67-.69.44-1.11,1.08-1.27,1.91-.16.83-.24,2.1-.24,3.81v15.89c0,2.92-.08,5.12-.25,6.59-.17,1.47-.61,2.96-1.32,4.47-1.33,2.9-3.18,4.9-5.56,5.99-2.38,1.09-4.67,1.64-6.87,1.64-1.62,0-3.3-.26-5.01-.78-1.72-.52-3.32-1.37-4.8-2.56-1.48-1.19-2.61-2.74-3.38-4.67-.42-1.06-.74-2.12-.97-3.19-.23-1.07-.36-2.08-.41-3.02-.04-.94-.07-2.18-.07-3.7l-.05-17.96c0-1.86-.3-3.18-.9-3.94s-2.01-1.14-4.23-1.14v-2.92h17.91v2.92c-1.52,0-2.65.19-3.4.56-.75.37-1.24.9-1.47,1.59-.23.69-.34,1.67-.34,2.94v17.96c0,1.84.07,3.46.22,4.85s.38,2.6.69,3.64c.59,1.72,1.6,3.09,3.02,4.12,1.42,1.03,2.99,1.54,4.7,1.54,1.83,0,3.54-.55,5.12-1.64,1.58-1.09,2.67-2.51,3.29-4.24.49-1.36.81-2.76.96-4.21s.22-3.18.22-5.2v-15.51c0-1.4-.04-2.44-.1-3.11-.07-.68-.26-1.28-.58-1.8-.31-.52-.83-.89-1.56-1.13-.72-.23-1.72-.35-3-.35v-2.92h13.07v2.92Z"/>
      </g>
      <g>
        <path class="cls-2" d="M15.15,77.85l-.08,3.82H4.88v-.78c.7,0,1.16-.1,1.36-.3s.3-.55.3-1.05v-7.19c0-.33-.03-.59-.1-.77-.07-.18-.22-.33-.47-.43-.24-.1-.61-.15-1.09-.15v-.78h5.76v.78c-.48,0-.84.05-1.08.14s-.41.24-.48.42-.11.45-.11.79v6.59c0,.52.03.89.08,1.11.05.23.19.4.41.51.22.12.59.17,1.11.17.65,0,1.21-.05,1.7-.15.49-.1.94-.36,1.35-.79.41-.42.67-1.08.77-1.95h.78Z"/>
        <path class="cls-2" d="M21.79,81.67h-5.81v-.78c.48,0,.85-.05,1.1-.14s.41-.23.49-.42.11-.45.11-.79v-7.19c0-.5-.1-.84-.31-1.05-.21-.2-.67-.3-1.39-.3v-.78h5.81v.78c-.48,0-.85.05-1.1.14-.25.1-.41.24-.49.42s-.11.45-.11.79v7.19c0,.33.04.58.11.77s.23.33.47.43.61.15,1.12.15v.78Z"/>
        <path class="cls-2" d="M32.89,78.65c0,.64-.16,1.17-.49,1.57-.33.41-.74.72-1.24.93s-.99.35-1.47.42c-.48.07-.94.1-1.38.1h-5.74v-.78c.49,0,.85-.05,1.08-.15.23-.1.38-.25.46-.43s.11-.44.11-.77v-7.23c0-.51-.1-.86-.31-1.06-.21-.2-.65-.3-1.33-.3v-.79c.82-.02,1.59-.03,2.33-.05s1.34-.03,1.82-.04.81-.01,1-.01h.31c.59,0,1.2.06,1.84.18.64.12,1.22.4,1.75.82s.79,1.04.79,1.85c0,.6-.21,1.12-.64,1.55s-1.13.79-2.1,1.07c.66.12,1.24.32,1.74.59.49.28.87.63,1.12,1.06.25.43.38.91.38,1.44ZM29.99,72.99c0-.39-.09-.74-.28-1.03-.19-.29-.47-.53-.83-.69-.37-.17-.82-.25-1.36-.25h-.89v4.1h.69c.91,0,1.58-.19,2.01-.57s.65-.9.65-1.55ZM30.3,78.51c0-.78-.2-1.38-.6-1.81-.4-.43-.97-.65-1.7-.65h-1.37v2.98c0,.42.03.74.08.98.05.23.18.41.38.54.2.13.52.19.96.19.58,0,1.11-.18,1.57-.53.46-.35.69-.92.69-1.7Z"/>
        <path class="cls-2" d="M46.31,81.67h-3.07c-.11-.12-.25-.3-.42-.54s-.35-.51-.54-.83c-.2-.32-.36-.58-.49-.79l-.78-1.28c-.35-.57-.61-.97-.79-1.18-.18-.21-.38-.35-.61-.41-.23-.06-.62-.09-1.16-.09h-.43v2.99c0,.32.03.57.1.76.07.19.23.34.48.44.25.1.61.15,1.09.15v.78h-5.74v-.78c.7,0,1.15-.1,1.35-.3.2-.2.3-.55.3-1.05v-7.23c0-.49-.1-.84-.29-1.04s-.65-.31-1.36-.31v-.79l2.65-.08c.2-.01.43-.02.7-.03.26,0,.5,0,.73,0,.17,0,.46,0,.87.02.57.02,1.1.05,1.6.1.5.05.89.12,1.17.19.42.11.82.28,1.2.53.38.25.69.57.93.98s.36.88.36,1.41c0,.38-.08.75-.25,1.11s-.43.68-.8.96c-.37.28-.85.5-1.46.67.41.24.76.54,1.05.9s.74,1.01,1.35,1.97c.35.55.65.96.88,1.24.23.28.44.47.64.57s.44.16.74.19v.78ZM41.56,73.27c0-.91-.28-1.52-.83-1.82-.55-.3-1.28-.45-2.17-.45-.12,0-.22,0-.29,0s-.15,0-.24,0v4.6h.53c.85,0,1.56-.14,2.14-.41.58-.28.87-.92.87-1.93Z"/>
        <path class="cls-2" d="M58.07,81.67h-5.4v-.78c.46,0,.79-.03,1-.1.21-.06.31-.22.31-.46,0-.17-.03-.34-.1-.51l-.54-1.35h-3.71l-.28.74c-.16.42-.24.72-.24.9,0,.34.13.55.39.64.26.09.57.14.92.14v.78h-3.94v-.78c.31,0,.58-.06.8-.18s.43-.34.63-.67.42-.79.65-1.4l3.3-8.65h.8l3.49,8.92c.25.63.44,1.06.56,1.28.12.22.28.39.49.52s.5.18.88.18v.78ZM53.04,77.64l-1.58-3.99-1.5,3.99h3.08Z"/>
        <path class="cls-2" d="M71.04,81.67h-3.07c-.11-.12-.25-.3-.42-.54s-.35-.51-.54-.83c-.2-.32-.36-.58-.49-.79l-.78-1.28c-.35-.57-.61-.97-.79-1.18-.18-.21-.38-.35-.61-.41-.23-.06-.62-.09-1.16-.09h-.43v2.99c0,.32.03.57.1.76.07.19.23.34.48.44.25.1.61.15,1.09.15v.78h-5.74v-.78c.7,0,1.15-.1,1.35-.3.2-.2.3-.55.3-1.05v-7.23c0-.49-.1-.84-.29-1.04s-.65-.31-1.36-.31v-.79l2.65-.08c.2-.01.43-.02.7-.03.26,0,.5,0,.73,0,.17,0,.46,0,.87.02.57.02,1.1.05,1.6.1.5.05.89.12,1.17.19.42.11.82.28,1.2.53.38.25.69.57.93.98s.36.88.36,1.41c0,.38-.08.75-.25,1.11s-.43.68-.8.96c-.37.28-.85.5-1.46.67.41.24.76.54,1.05.9s.74,1.01,1.35,1.97c.35.55.65.96.88,1.24.23.28.44.47.64.57s.44.16.74.19v.78ZM66.29,73.27c0-.91-.28-1.52-.83-1.82-.55-.3-1.28-.45-2.17-.45-.12,0-.22,0-.29,0s-.15,0-.24,0v4.6h.53c.85,0,1.56-.14,2.14-.41.58-.28.87-.92.87-1.93Z"/>
        <path class="cls-2" d="M81.67,71c-.31.02-.57.09-.77.21-.21.12-.41.31-.62.58-.21.27-.51.71-.91,1.32l-2.41,3.72v2.71c0,.31.03.56.1.74.06.19.21.33.45.44s.61.17,1.12.17v.78h-5.76v-.78c.48,0,.84-.05,1.08-.14s.41-.23.48-.42.11-.45.11-.79v-2.56l-2.87-4.79s-.05-.07-.07-.11-.04-.07-.05-.08c-.25-.41-.47-.67-.66-.79s-.48-.19-.86-.21v-.78h5.36v.78c-.27,0-.48,0-.64.03-.16.02-.29.06-.38.13s-.15.19-.15.35c0,.11.03.24.1.39.07.15.22.44.46.85l1.78,3.01,1.7-2.68c.37-.58.55-1,.55-1.28,0-.35-.12-.58-.35-.67-.23-.09-.55-.13-.96-.13v-.78h4.16v.78Z"/>
      </g>
      <rect x="2.76" y="61.83" width="82.03" height="3.52"/>
    </g>
  </g>
</svg>